<svg width="426" height="512" viewBox="0 0 426 512" fill="none" xmlns="http://www.w3.org/2000/svg">
<path d="M0 384.017V127.996L212.891 0L425.78 127.996V384.017L212.891 512L0 384.017Z" fill="#023020"/>
<path d="M102.719 370.961H89.4137V357.655H76.1081V344.349H62.8025V331.044H76.1081V304.432H89.4137V291.127H102.719V277.821H116.025V264.516H102.719V184.682H116.025V158.071H129.331V144.765H142.636V131.459H169.247V118.154H222.47V104.848H235.775V118.154H249.081V131.459H275.692V144.765H288.998V158.071H302.304V184.682H315.609V264.516H301.239V277.821H315.609V291.127H328.915V304.432H342.22V331.044H355.526V344.349H342.22V357.655H315.609V370.961H288.998V384.266H275.692V331.044H262.387V304.432H249.081V277.821H235.775V264.516H249.081V251.21H262.387V237.904H275.692V197.988H262.387V184.682H249.081V171.376H209.164V184.682H195.859V224.599H169.247V184.682H155.942V171.376H142.636V184.682H129.331V197.988H116.025V251.21H129.331V264.516H142.636V277.821H129.331V304.432H116.025V331.044H102.719V370.961Z" fill="black"/>
<path d="M155.942 224.599H142.636V197.988H155.942V224.599Z" fill="black"/>
<path d="M235.775 224.599H222.47V197.988H235.775V224.599Z" fill="black"/>
<path d="M315.609 158.071H302.304V131.459H315.609V158.071Z" fill="black"/>
<path d="M355.526 131.459H315.609V118.154H355.526V131.459Z" fill="black"/>
<path d="M368.832 118.154H355.526V78.237H368.832V118.154Z" fill="black"/>
<path d="M249.081 104.848H235.775V78.237H249.081V104.848Z" fill="black"/>
<path d="M235.775 78.237H222.47V38.3202H235.775V78.237Z" fill="black"/>
<path d="M342.22 64.9314H355.526V78.237H328.915V51.6258H342.22V64.9314Z" fill="black"/>
<path d="M275.692 51.6258H262.387V38.3202H275.692V51.6258Z" fill="black"/>
<path d="M328.915 51.6258H315.609V38.3202H328.915V51.6258Z" fill="black"/>
<path d="M262.387 38.3202H235.775V25.0146H262.387V38.3202Z" fill="black"/>
<path d="M315.609 38.3202H275.692V25.0146H315.609V38.3202Z" fill="black"/>
<path d="M302.304 158.071H288.998V144.765H302.304V158.071Z" fill="#DADADA"/>
<path d="M328.915 118.154H288.998V104.848H328.915V118.154Z" fill="#DADADA"/>
<path d="M355.526 118.154H342.22V104.848H355.526V118.154Z" fill="#DADADA"/>
<path d="M288.998 104.848H262.387V91.5426H288.998V104.848Z" fill="#DADADA"/>
<path d="M262.387 91.5426H249.081V78.237H262.387V91.5426Z" fill="#DADADA"/>
<path d="M249.081 78.237H235.775V64.9314H249.081V78.237Z" fill="#DADADA"/>
<path d="M328.915 78.237H315.609V64.9314H328.915V78.237Z" fill="#DADADA"/>
<path d="M209.164 237.904H195.859V251.21H169.247V237.904H155.942V224.599H209.164V237.904Z" fill="#F69626"/>
<path fill-rule="evenodd" clip-rule="evenodd" d="M155.942 184.682H169.247V224.599H155.942V197.988H142.636V224.599H155.942V237.904H169.247V251.21H195.859V237.904H209.164V224.599H199.052V184.682H209.164V171.376H249.081V184.682H262.387V197.988H275.692V237.904H262.387V251.21H249.081V264.516H235.775V277.821H249.081V304.432H262.387V331.044H275.692V384.266H262.387V397.572H236.308V410.877H222.47V424.183H195.859V410.877H169.78V397.572H142.636V384.266H116.025V370.961H102.719V331.044H117.622V304.432H129.331V277.821H142.636V264.516H129.331V251.21H116.025V197.988H129.331V184.682H142.636V171.376H155.942V184.682ZM222.47 224.599H235.775V197.988H222.47V224.599Z" fill="white"/>
<path d="M315.609 78.237H355.526V104.848H342.22V118.154H328.915V104.848H288.998V118.154H315.609V131.459H302.304V144.765H275.692V131.459H249.081V118.154H235.775V104.848H249.081V91.5426H262.387V104.848H288.998V91.5426H262.387V78.237H249.081V64.9314H235.775V38.3202H262.387V51.6258H275.692V38.3202H315.609V51.6258H328.915V64.9314H315.609V78.237Z" fill="white"/>
</svg>
